PathFileType	4	(X/Y/Z)	Patient4_TMGait_0pt5_02_right_14.trc.trc
DataRate	CameraRate	NumFrames	NumMarkers	Units	OrigDataRate	OrigDataStartFrame	OrigNumFrames
77.777777777778	77.777777777778	4	33	mm	77.777777777778	106	       141
Frame#	Time	Sacral			L.Shoulder			Chest			R.Shoulder			Neck			R.ASIS			L.ASIS			R.Thigh.Superior			R.Thigh.Lateral			R.Thigh.Inferior			R.Patella			L.Thigh.Superior			L.Thigh.Lateral			L.Thigh.Inferior			L.Patella			L.Shank.Superior			L.Shank.Lateral			L.Shank.Inferior			R.Shank.Superior			R.Shank.Lateral			R.Shank.Inferior			R.Heel			R.Midfoot.Superior			R.Midfoot.Lateral			R.Toe			L.Heel			L.Midfoot.Lateral			L.Midfoot.Superior			L.Toe			L.Elbow			L.Wrist			R.Elbow			R.Wrist			
		X1	Y1	Z1	X2	Y2	Z2	X3	Y3	Z3	X4	Y4	Z4	X5	Y5	Z5	X6	Y6	Z6	X7	Y7	Z7	X8	Y8	Z8	X9	Y9	Z9	X10	Y10	Z10	X11	Y11	Z11	X12	Y12	Z12	X13	Y13	Z13	X14	Y14	Z14	X15	Y15	Z15	X16	Y16	Z16	X17	Y17	Z17	X18	Y18	Z18	X19	Y19	Z19	X20	Y20	Z20	X21	Y21	Z21	X22	Y22	Z22	X23	Y23	Z23	X24	Y24	Z24	X25	Y25	Z25	X26	Y26	Z26	X27	Y27	Z27	X28	Y28	Z28	X29	Y29	Z29	X30	Y30	Z30	X31	Y31	Z31	X32	Y32	Z32	X33	Y33	Z33	

106	19.680000000000	581.782581931850	1014.095413802108	465.867808561101	788.743087537759	1438.944078735405	297.679318498072	875.638594080323	1363.207063053818	465.265348697745	781.273132336936	1437.340581843968	634.518503327474	777.433673006165	1498.062627786318	449.341291696686	801.488766251083	947.526933680232	595.019627765142	806.663239570491	962.472940901628	320.181645925251	885.899188095386	781.773171808235	565.002902094301	848.801876480084	659.888705826129	637.111692021700	939.192824506714	621.355228014584	558.438965720730	961.882053990075	510.312441536158	581.781012890502	841.852162121701	747.149320919166	351.728543771227	748.976888642114	635.870628573224	293.906393368409	826.496603583037	554.848727358384	360.816193250680	823.065860189859	484.898504147067	372.920567766521	793.961157549077	414.558455013984	364.869996127373	703.299714893100	302.641912652693	312.140845193084	745.000350812981	191.464590923540	387.675446862267	892.511084109102	431.251251202062	588.199040527110	775.713755231378	378.403990508549	646.386287540392	774.320792818782	268.412396437025	597.976877293269	582.710982932094	188.824485070435	565.979361945236	753.738520504240	142.097069300625	608.731564235259	644.243883873075	132.828220931948	640.524430250401	826.520488473443	35.323194201876	637.581646888544	609.287489382283	38.341929634895	428.239032317992	685.022713405433	35.224568688623	349.153089604464	768.410104607760	95.314654365336	377.338216609328	897.114678988959	41.135781285687	351.472864205472	829.621847901042	1100.378327432316	147.922306323397	1033.856241296089	936.022426891230	143.977770304053	710.702475545535	1091.522395660824	738.908621823673	752.927059268954	833.268997451668	746.033300291447	
107	19.692857142857	581.117369460895	1014.814124274790	464.954069584320	790.470014359839	1439.319805439769	297.973899041810	875.919418090582	1363.344771362106	466.179286010114	780.308122084752	1437.637619244642	634.660582308714	777.856629402755	1498.340641837699	449.608673008595	800.511152344564	948.018819975104	595.128589286040	806.488128831082	962.518799630482	320.428757717715	885.578557535009	783.420133013389	564.982562899351	849.743815530700	661.364103788753	637.321444467352	939.909896647843	623.403363029632	558.274200650380	964.301999751306	513.852093566622	581.808772123642	839.528502429021	746.242661595843	352.017682627920	745.372232040744	636.008705353978	293.705429657731	821.544137159699	554.118006746559	360.755559856968	817.239582761226	484.408242809991	372.890209291331	788.208871137602	414.411693844004	364.690466708547	697.352828796829	302.674755829037	311.937726522230	738.759011724672	191.440504322595	387.564284195218	898.297140443045	432.944026029541	588.274908247991	784.447952248883	374.461141130716	646.592363320308	788.344186009305	264.594576509581	598.093384993142	600.841806238559	175.552489511862	566.514644973504	774.060954290864	137.405487611956	608.557746388500	665.362265447361	122.557607015126	640.773877436351	852.262087340765	34.485300710189	636.806012317616	602.793645274721	38.396773367990	428.179693586595	678.548838284213	35.215167899588	349.116426498585	761.961681987819	95.300261386906	377.268813492508	890.653153139240	41.058529761682	351.441257597554	835.164471609979	1102.330261501537	146.846881861418	1045.462846911369	945.839273442096	143.444123825572	700.043755512109	1094.367905301740	738.721458358036	730.815769233251	834.553645305481	746.103474750256	
108	19.705714285714	580.548121473112	1015.464156496008	464.192273829961	792.204785378311	1439.567496206795	298.399246945281	876.268893668192	1363.376434332938	467.187606386328	779.477463475767	1437.876279324812	634.892088017410	778.381850400316	1498.515817900304	449.977632647271	799.547698926153	948.361073905405	595.387390492638	806.231818659043	962.443258829778	320.857950602610	884.894277565536	784.528629521697	565.208037301709	849.883843762302	662.367117923399	637.707878436719	939.776688920365	624.782016022563	558.351297491779	965.696572722130	516.967027914244	581.992493759238	837.213942395514	745.287828593338	352.459007937808	741.775143984710	636.131641543625	293.577297461491	816.550168050171	553.373884310575	360.775548549665	811.363230043975	483.910707854721	372.916578487427	782.426043221139	414.259701666122	364.559660946593	691.384697728658	302.703591478048	311.773503462314	732.504479895646	191.411435467117	387.484856692111	903.419666675735	434.328272488033	588.533820335191	793.155646159913	369.970487074621	647.156095200329	802.697641297157	260.521659648851	598.492459242749	620.203306405119	161.536016254561	567.471364357833	795.246594651521	132.774170226052	608.703182366158	687.778787052302	112.017093319563	641.425773321162	879.046047042261	34.304330449137	636.363643514795	596.316610776658	38.437034809116	428.134285693447	672.073073680623	35.204142482640	349.085703794139	755.509494012406	95.284232207322	377.213896543783	884.189979050858	40.993975573613	351.414915943071	840.314506276297	1104.117378403574	145.974864486818	1056.236898598413	955.547737533261	143.255838353104	689.579266441223	1097.495692347252	738.576677985091	709.859764074486	836.751873621608	746.034896581012	
109	19.718571428571	580.091342017356	1016.027514598627	463.600407170450	793.944946345122	1439.679911970834	298.957833138701	876.689233929425	1363.290843334299	468.290577123785	778.803807704050	1438.045064111294	635.232488000380	779.029722431244	1498.578532607344	450.451962627819	798.610483699354	948.547184967885	595.806912024906	805.925144196449	962.255372324676	321.457885181158	883.844863094972	785.072025660899	565.665933121887	849.191088459078	662.868051715508	638.250540629941	938.782370951061	625.467397065696	558.659286478805	966.064185924007	519.615864843373	582.280867965656	834.920053047231	744.283828169123	353.035182358784	738.201204750584	636.231751298515	293.525341541966	811.547747250880	552.615499228257	360.876032409622	805.485954685438	483.402695077140	372.996314615955	776.643594169364	414.096775751340	364.482911909089	685.415741382317	302.730444914589	311.652272367877	726.249008430405	191.373624992344	387.439810602249	907.841312679487	435.429240171399	588.934021244773	801.830236784033	365.078793447010	648.053801619836	817.278995610500	256.396813290683	599.129516710925	640.746133582246	147.135991183113	568.811807099415	817.114785606430	128.488562056195	609.109410386138	711.375921283820	101.561276540023	642.427803281296	906.582752862338	35.095396290958	636.184773458093	589.855544726272	38.466299223898	428.101271001408	665.595577735023	35.193435431182	349.060792945295	749.054400976605	95.266525641224	377.173078589643	877.723880110866	40.939875815066	351.393589596122	845.095239020161	1105.717261107732	145.305091951716	1066.166760745001	965.042452567995	143.405905408147	679.374827401617	1100.856349991285	738.448731298709	690.092392613732	839.670984478187	745.887232813549	
